<svg id="Layer_1" data-name="Layer 1" xmlns="http://www.w3.org/2000/svg" viewBox="0 0 157.65 156.25"><defs><style>.cls-1{fill:#fff;}</style></defs><path class="cls-1" d="M91.18,101.74,170,238.26l78.82-136.52Zm1.73,1H247.09L170,236.26ZM212.67,150.9c0-4.05-4.51-7.73-11.83-10.44a32,32,0,0,0-61.68,0c-7.32,2.71-11.83,6.39-11.83,10.44,0,4.33,5.15,8.23,13.38,11a32,32,0,0,0,58.58,0C207.52,159.13,212.67,155.23,212.67,150.9ZM170,118a31.06,31.06,0,0,1,29.68,22c-7.68-2.63-18.14-4.26-29.68-4.26s-22,1.63-29.68,4.26A31.06,31.06,0,0,1,170,118Zm-37.93,34.8c0-2.87,2.28-5.55,6.19-7.78a30.7,30.7,0,0,0-.26,4,32,32,0,0,0,2.67,12.8C135.31,159.35,132.07,156.22,132.07,152.8ZM170,180a31,31,0,0,1-30.66-35.57c6.9-3.55,18.06-5.86,30.66-5.86s23.76,2.31,30.66,5.86A31,31,0,0,1,170,180Zm29.33-18.2A32,32,0,0,0,202,149a30.7,30.7,0,0,0-.26-4c3.91,2.23,6.19,4.91,6.19,7.78C207.93,156.22,204.69,159.35,199.33,161.8ZM106.89,91.7a7.37,7.37,0,0,1-.48-2.7,7.26,7.26,0,0,1,.49-2.69,6.09,6.09,0,0,1,1.43-2.15,6.56,6.56,0,0,1,2.19-1.39,7.25,7.25,0,0,1,2.65-.5,7.37,7.37,0,0,1,2.29.34,6,6,0,0,1,1.91,1l0,1.3a7.09,7.09,0,0,0-2-1.23,5.77,5.77,0,0,0-2.11-.39,5.48,5.48,0,0,0-4.06,1.58A5.63,5.63,0,0,0,107.66,89a6.41,6.41,0,0,0,.39,2.3,5.06,5.06,0,0,0,1.16,1.81A5.49,5.49,0,0,0,111,94.29a5.86,5.86,0,0,0,2.14.4,6.38,6.38,0,0,0,2.16-.38,7.06,7.06,0,0,0,2-1.11v1.37a8.61,8.61,0,0,1-2,.89,7.33,7.33,0,0,1-4.77-.19,6.26,6.26,0,0,1-3.61-3.57Zm14,1.66-1.26,1.27.87.87,1.28-1.27a7,7,0,0,0,1.74,1,7.19,7.19,0,0,0,5.27,0A6.88,6.88,0,0,0,131,93.79a6.58,6.58,0,0,0,2-4.77,6.61,6.61,0,0,0-1.65-4.41l1.29-1.29-.87-.88-1.34,1.33a6.38,6.38,0,0,0-1.66-1,7.16,7.16,0,0,0-2.67-.5,7.05,7.05,0,0,0-2.65.49,6.48,6.48,0,0,0-2.21,1.45,6.67,6.67,0,0,0-2,4.81,6.61,6.61,0,0,0,.52,2.58A6.75,6.75,0,0,0,120.89,93.36Zm10.49-6.53a5.79,5.79,0,0,1,0,4.38,5.63,5.63,0,0,1-3.07,3.09,5.62,5.62,0,0,1-2.16.42,5.55,5.55,0,0,1-2.17-.41,5.14,5.14,0,0,1-1.39-.89l8-8A5.34,5.34,0,0,1,131.38,86.83Zm-10.44,0A5.91,5.91,0,0,1,122.17,85a5.55,5.55,0,0,1,4-1.65,5.68,5.68,0,0,1,2.18.42,5.44,5.44,0,0,1,1.35.84l-8,8a5.38,5.38,0,0,1-.79-1.32,5.59,5.59,0,0,1-.43-2.19A5.52,5.52,0,0,1,120.94,86.83Zm13.81,6.49.92-.68A4.14,4.14,0,0,0,137,94.22a3.17,3.17,0,0,0,1.81.5,2.9,2.9,0,0,0,2.25-.91,3.49,3.49,0,0,0,.84-2.45,3,3,0,0,0-.86-2.27,3.19,3.19,0,0,0-2.33-.84,4.4,4.4,0,0,0-1.49.23,3.47,3.47,0,0,0-1.17.7l-.36,0,1.64-6.46h5.2v1h-4.39l-1,4a5.69,5.69,0,0,1,1-.32,3.83,3.83,0,0,1,.94-.11,3.85,3.85,0,0,1,4.07,4.05,4.47,4.47,0,0,1-1.2,3.25,4.18,4.18,0,0,1-3.15,1.25,4.38,4.38,0,0,1-2.34-.61A4.7,4.7,0,0,1,134.75,93.32Zm11.63,2.11h-1.2L146.92,82l4.93,11.45L157,82l1.65,13.41h-1.2l-1-9.83-4.59,10.33L147.35,85.6Zm15.68-2.07-1.26,1.27.87.87L163,94.23a6.74,6.74,0,0,0,4.37,1.54,7.12,7.12,0,0,0,2.64-.5,6.88,6.88,0,0,0,2.24-1.48,6.75,6.75,0,0,0,1.5-7.38,7.07,7.07,0,0,0-1.13-1.8l1.29-1.29-.88-.88-1.33,1.33a6.38,6.38,0,0,0-1.66-1,7.42,7.42,0,0,0-5.33,0,6.53,6.53,0,0,0-2.2,1.45,6.73,6.73,0,0,0-1.5,2.2,6.57,6.57,0,0,0-.52,2.61A6.43,6.43,0,0,0,161,91.6,6.75,6.75,0,0,0,162.06,93.36Zm10.49-6.53a5.77,5.77,0,0,1-1.23,6.24,5.59,5.59,0,0,1-4,1.65,5.52,5.52,0,0,1-2.17-.41,5.35,5.35,0,0,1-1.4-.89l8-8A5.34,5.34,0,0,1,172.55,86.83Zm-10.45,0A6.08,6.08,0,0,1,163.33,85a5.78,5.78,0,0,1,1.83-1.23,5.62,5.62,0,0,1,2.16-.42,5.72,5.72,0,0,1,2.18.42,5.44,5.44,0,0,1,1.35.84l-8,8a6.08,6.08,0,0,1-.79-1.32,5.77,5.77,0,0,1-.42-2.19A5.69,5.69,0,0,1,162.1,86.83Zm13.82,6.49.91-.68a4.25,4.25,0,0,0,1.32,1.58,3.16,3.16,0,0,0,1.8.5,2.91,2.91,0,0,0,2.26-.91,3.49,3.49,0,0,0,.84-2.45,3,3,0,0,0-.86-2.27,3.19,3.19,0,0,0-2.33-.84,4.4,4.4,0,0,0-1.49.23,3.52,3.52,0,0,0-1.18.7l-.36,0,1.65-6.46h5.2v1h-4.39l-1,4a5.78,5.78,0,0,1,1-.32,3.83,3.83,0,0,1,.94-.11,4,4,0,0,1,2.95,1.12,3.93,3.93,0,0,1,1.12,2.93,4.47,4.47,0,0,1-1.2,3.25,4.19,4.19,0,0,1-3.15,1.25,4.44,4.44,0,0,1-2.35-.61A4.68,4.68,0,0,1,175.92,93.32Zm11.6,2a.94.94,0,0,1,0-1.28.9.9,0,0,1,.64-.26.88.88,0,0,1,.64.26.92.92,0,0,1,0,1.28.88.88,0,0,1-.64.26A.9.9,0,0,1,187.52,95.33Zm4.71-3.63a7.37,7.37,0,0,1-.48-2.7,7.07,7.07,0,0,1,.5-2.69,6.07,6.07,0,0,1,1.42-2.15,6.66,6.66,0,0,1,2.19-1.39,7.54,7.54,0,0,1,4.94-.16,6,6,0,0,1,1.91,1l0,1.3a7.09,7.09,0,0,0-2-1.23,5.77,5.77,0,0,0-2.11-.39,5.44,5.44,0,0,0-4.05,1.58A5.59,5.59,0,0,0,193,89a6.42,6.42,0,0,0,.38,2.3,5.06,5.06,0,0,0,1.16,1.81,5.49,5.49,0,0,0,1.77,1.18,5.86,5.86,0,0,0,2.14.4,6.48,6.48,0,0,0,2.17-.38,7.15,7.15,0,0,0,2-1.11v1.37a8.61,8.61,0,0,1-2,.89,7.25,7.25,0,0,1-2.09.31,7.33,7.33,0,0,1-2.68-.5,6.22,6.22,0,0,1-2.18-1.41A6.13,6.13,0,0,1,192.23,91.7Zm14.4,2.09a6.84,6.84,0,0,0,2.23,1.48,7.19,7.19,0,0,0,5.27,0,6.88,6.88,0,0,0,2.24-1.48,6.75,6.75,0,0,0,1.5-2.18,6.76,6.76,0,0,0,0-5.2,6.73,6.73,0,0,0-1.5-2.2,6.6,6.6,0,0,0-2.21-1.44,7.16,7.16,0,0,0-2.67-.5,7.05,7.05,0,0,0-2.65.49,6.48,6.48,0,0,0-2.21,1.45,6.61,6.61,0,0,0-2,4.81,6.6,6.6,0,0,0,.51,2.58A6.69,6.69,0,0,0,206.63,93.79Zm-.35-7A5.91,5.91,0,0,1,207.51,85a5.55,5.55,0,0,1,4-1.65,5.68,5.68,0,0,1,2.18.42A5.57,5.57,0,0,1,215.5,85a6,6,0,0,1,1.23,1.86,5.77,5.77,0,0,1,.42,2.19,5.8,5.8,0,0,1-1.65,4,5.71,5.71,0,0,1-1.84,1.23,5.63,5.63,0,0,1-2.17.42,5.55,5.55,0,0,1-2.17-.41,5.47,5.47,0,0,1-1.81-1.24,5.69,5.69,0,0,1-1.23-1.86,5.78,5.78,0,0,1-.43-2.19A5.7,5.7,0,0,1,206.28,86.83Zm15.07,8.6h-1.2L221.9,82l4.93,11.45L231.94,82l1.65,13.41h-1.2l-1-9.83-4.59,10.33L222.33,85.6Z" transform="translate(-91.18 -82.02)"/></svg>